<svg xmlns="http://www.w3.org/2000/svg" width="200.9" height="50.3"><style>.st0{fill:#14315d}</style><g id="Layer_1"><g id="Page-1" transform="translate(.49)"><path id="Fill-1" class="st0" d="M21.2 0L-.5 12.6v24.9L21.2 50l21.6-12.5V12.6z"/><path id="Fill-2" fill="#f74d7b" d="M10.3 31.3V18.8L5 15.7v18.6l16.2 9.4v-6.2z"/><path id="Fill-3" fill="#26abe8" d="M32 31.3V18.8l5.4-3.1v18.6l-16.2 9.4v-6.2z"/><path id="Fill-4" fill="#fff" d="M32 18.8l5.4-3.1-16.2-9.4L5 15.7l5.3 3.1 4-2.3 10.9 6.3 5.3-3.1-10.8-6.3 1.5-.9z"/></g><g id="Page-1_1_" transform="translate(37.583 11.316)"><g id="Group-18" transform="translate(.58)"><path id="Fill-1_1_" class="st0" d="M18 5.6v17.3h4.2v-6.5h6.4v-3.5h-6.4V9.4h7.3V5.6z"/><path id="Fill-2_1_" class="st0" d="M37.3 9.3v4.5h2.2c1.7 0 2.6-.8 2.6-2.3s-.8-2.2-2.5-2.2h-2.3zm2.5-3.7c4.3 0 6.6 2.2 6.6 5.6 0 2.2-.9 3.8-2.6 4.8l3.6 6.9h-4.6l-3-5.9c-.5.1-.9.1-1.3.1h-1.2v5.8H33V5.6h6.8z"/><path id="Fill-4_1_" class="st0" d="M58.2 19.3c2.7 0 4.1-2 4.1-5.1 0-2.9-1.4-5-4.1-5-2.7 0-4 2.1-4 5 0 3.1 1.4 5.1 4 5.1m0-14c5.2 0 8.5 3.4 8.5 8.9 0 5.6-3.3 9-8.5 9s-8.5-3.4-8.5-9c0-5.4 3.3-8.9 8.5-8.9"/><path id="Fill-7" class="st0" d="M70.6 5.6h3.7L81 15.8V5.6h4.2v17.3h-3.7L74.8 13v9.9h-4.2z"/><path id="Fill-9" class="st0" d="M93.4 9.4h-5V5.6h14.2v3.8h-5v13.5h-4.2z"/><path id="Fill-11" class="st0" d="M107 17.6c1.6 1.2 3.4 2.1 4.9 2.1 1.3 0 2.1-.6 2.1-1.7 0-1-.6-1.5-3.4-2.3-3.5-1-5-2.4-5-5.1 0-3.6 2.8-5.3 6.3-5.3 2.3 0 4.5.8 6.2 2.4l-1.9 2.6c-1.3-1-2.8-1.6-4.2-1.6-1.2 0-2.1.5-2.1 1.4 0 1.1 1 1.4 3.8 2.4 3.2 1 4.6 2.3 4.6 5 0 3.5-2.5 5.6-6.4 5.6-2.8 0-5.2-1.1-7-3l2.1-2.5z"/><path id="Fill-14" class="st0" d="M122.3 5.6h4.2v17.3h-4.2z"/><path id="Fill-16" class="st0" d="M135.3 9.4v9.8h2c2.9 0 4.2-1.6 4.2-4.9 0-3.2-1.3-4.9-4.2-4.9h-2zm2-3.8c5.7 0 8.6 3.4 8.6 8.3 0 6.2-3 8.9-9.3 8.9H131V5.6h6.3z"/><path id="Fill-17" class="st0" d="M149.8 5.6h11.9v3.8H154v3.1h7v3.4h-7v3.3h7.8v3.7h-12z"/></g></g></g></svg>
